OpenSim_Sub10_CSStiffKnee_LCS.mot
version=1
nRows=25
nColumns=11
inDegrees=no
endheader
time	Bot_Shank	2nd_Bot_Shank	2nd_Top_Shank	Top_Shank	Bot_Thigh	Med_Thigh	Top_Thigh	BNOx	BNOy	BNOZ
61.30000000	10337.02244298	10385.15533300	10799.86378974	10614.35703305	13146.73794986	14124.83544156	14751.09320923	229.64047803	-63.73930839	116.68109342
61.31000000	10333.39587521	10384.79872777	10801.16675986	10612.21616407	13119.96827287	14120.25576649	14742.44025877	229.63196195	-63.68519298	116.80627002
61.32000000	10330.72224384	10384.83442470	10802.47866889	10611.08891685	13100.14649205	14120.94311305	14734.64875796	229.62488233	-63.63634362	116.87086215
61.33000000	10329.33720643	10385.43563723	10803.77342261	10611.29559894	13090.80051871	14128.15958606	14728.68374244	229.60856281	-63.60016267	116.87711263
61.34000000	10329.22911828	10386.59842073	10805.03095817	10612.72773155	13092.34829121	14141.53266747	14724.81096476	229.57641405	-63.57981057	116.84314500
61.35000000	10330.11898078	10388.18245397	10806.23585564	10614.94675531	13102.81368461	14159.43150328	14722.75786804	229.52499291	-63.57518232	116.79930782
61.36000000	10331.72091803	10390.04390766	10807.37281456	10617.50562002	13120.15899034	14180.19287073	14722.23804819	229.45093716	-63.58608892	116.77626409
61.37000000	10333.74905413	10392.03895246	10808.42653445	10619.95727547	13142.34649983	14202.15354705	14722.96510112	229.35088457	-63.61234136	116.80467684
61.38000000	10335.91751318	10394.02375909	10809.38171484	10621.85467146	13167.33850450	14223.65030948	14724.65262275	229.22147292	-63.65375064	116.91520909
61.39000000	10337.94041930	10395.85449822	10810.22305523	10622.75075780	13193.09729578	14243.01993525	14727.01420899	229.05933998	-63.71012776	117.13852384
61.40000000	10339.53189659	10397.38734055	10810.93525516	10622.19848429	13217.58516512	14258.59920161	14729.76345576	228.86112354	-63.78128371	117.50528411
61.41000000	10340.40606915	10398.47845676	10811.50301415	10619.75080072	13238.76440393	14268.72488578	14732.61395897	228.62346137	-63.86702950	118.04615293
61.42000000	10340.27706109	10398.98401755	10811.91103173	10614.96065690	13254.59730364	14271.73376500	14735.27931453	228.34299124	-63.96717611	118.79179331
61.43000000	10338.89224721	10398.77311256	10812.13971829	10607.45366925	13263.26067376	14266.19468986	14737.48427594	228.01636089	-64.08193951	119.76228828
61.44000000	10336.34226983	10397.84820172	10812.12520502	10597.60563644	13265.14592584	14253.07234689	14739.06878317	227.64032079	-64.21571634	120.86849721
61.45000000	10332.92028063	10396.29042628	10811.77750076	10586.23492444	13261.95096780	14234.74483727	14739.94073005	227.21168204	-64.37536960	121.95684333
61.46000000	10328.92204872	10394.18194443	10811.00627672	10574.16561930	13255.39059382	14213.60853035	14740.00888870	226.72725654	-64.56779418	122.87291709
61.47000000	10324.64334321	10391.60491434	10809.72120408	10562.22180709	13247.17959809	14192.05979549	14739.18203125	226.18385615	-64.79988497	123.46230890
61.48000000	10320.37993320	10388.64149423	10807.83195406	10551.22757389	13239.03277479	14172.49500203	14737.36892980	225.57829276	-65.07853685	123.57060918
61.49000000	10316.42758780	10385.37384227	10805.24819786	10542.00700576	13232.66491812	14157.31051933	14734.47835649	224.90737825	-65.41064472	123.04340838
61.50000000	10313.06244010	10381.87474253	10801.87784152	10535.32936935	13229.69983016	14148.76301605	14730.44983230	224.16851853	-65.80235698	121.74973970
61.51000000	10310.26681064	10378.07671456	10797.60237907	10531.14367051	13230.39980178	14147.01882461	14725.68297234	223.36800773	-66.24865244	119.90941017
61.52000000	10307.79684241	10373.80430194	10792.28297252	10528.76747670	13233.97902978	14150.63513247	14720.93157311	222.51898219	-66.73591155	118.01225314
61.53000000	10305.40286033	10368.87927078	10785.78026087	10527.50211260	13239.62475035	14158.12773429	14716.95854186	221.63475423	-67.25029358	116.55504801
61.54000000	10302.83518934	10363.12338715	10777.95488311	10526.64890286	13246.52419967	14168.01242472	14714.52678586	220.72863619	-67.77795778	116.03457416
